<svg xmlns="http://www.w3.org/2000/svg" viewBox="0 0 32 32">
  <defs>
    <linearGradient id="bg" x1="0" y1="0" x2="32" y2="32" gradientUnits="userSpaceOnUse">
      <stop offset="0" stop-color="#0EA5E9"/>
      <stop offset="1" stop-color="#38BDF8"/>
    </linearGradient>
  </defs>
  <rect width="32" height="32" rx="7" fill="url(#bg)"/>
  <!-- Omni ring (the "O") + orbit marker -->
  <circle cx="16" cy="16" r="11" fill="none" stroke="#fff" stroke-width="1.4" opacity="0.5"/>
  <circle cx="16" cy="5" r="1.7" fill="#fff"/>
  <!-- Kube — isometric cube -->
  <path d="M16 8.5 L22 11.5 L16 14.5 L10 11.5 Z" fill="#fff" fill-opacity="0.32"/>
  <path d="M22 11.5 L22 17.5 L16 20.5 L16 14.5 Z" fill="#fff" fill-opacity="0.16"/>
  <path d="M10 11.5 L10 17.5 L16 20.5 L16 14.5 Z" fill="#fff" fill-opacity="0.06"/>
  <path d="M16 8.5 L22 11.5 L22 17.5 L16 20.5 L10 17.5 L10 11.5 Z"
    fill="none" stroke="#fff" stroke-width="1.5" stroke-linejoin="round"/>
  <path d="M16 14.5 L22 11.5 M16 14.5 L10 11.5 M16 14.5 L16 20.5"
    fill="none" stroke="#fff" stroke-width="1.5" stroke-linecap="round" stroke-linejoin="round"/>
</svg>
